<?xml version="1.0" encoding="UTF-8"?>
<svg id="Vectors" xmlns="http://www.w3.org/2000/svg" viewBox="0 0 1034.77 385.99">
  <defs>
    <style>
      .cls-1 {
        fill: #fcfcfc;
        stroke-width: 0px;
      }
    </style>
  </defs>
  <g id="ENG-LIGHT">
    <g>
      <g>
        <path class="cls-1" d="M197.45,285.58v16.65H67.49c-3-5.15-5.35-10.73-7.52-16.63l137.48-.02Z"/>
        <path class="cls-1" d="M197.45,318.04v15.22c0,.78-.63,1.42-1.42,1.42h-71.81c-14.44,0-30.84-5.03-43.76-16.64,0,0,116.99,0,116.99,0Z"/>
        <path class="cls-1" d="M213.15,53.91v98.14c0,.6-.19,1.18-.54,1.67l-60.08,82.46c-.53.73-1.39,1.17-2.29,1.17H56.57c-.93,0-1.63-.89-1.37-1.79,2.2-7.86,5.85-15.12,10.63-21.49l104.24-137.85c14.89-18.45,34.03-22.61,41.48-23.7.85-.13,1.61.54,1.61,1.4Z"/>
        <path class="cls-1" d="M197.45,254v15.79H54.94c-.04-.13-1.97-5.32-2.15-15.19-.01-.8.62-1.45,1.42-1.45h142.39c.47,0,.85.38.85.85Z"/>
      </g>
      <g>
        <path class="cls-1" d="M383.1,285.6c-2.17,5.9-4.52,11.48-7.52,16.63h-129.96v-16.65s137.48.02,137.48.02Z"/>
        <path class="cls-1" d="M245.62,318.04v15.22c0,.78.63,1.42,1.42,1.42h71.81c14.44,0,30.84-5.03,43.76-16.64,0,0-116.99,0-116.99,0Z"/>
        <path class="cls-1" d="M229.92,53.91v98.14c0,.6.19,1.18.54,1.67l60.08,82.46c.53.73,1.39,1.17,2.29,1.17h93.67c.93,0,1.63-.89,1.37-1.79-2.2-7.86-5.85-15.12-10.63-21.49l-104.24-137.85c-14.89-18.45-34.03-22.61-41.48-23.7-.85-.13-1.61.54-1.61,1.4Z"/>
        <path class="cls-1" d="M245.62,254.57v15.22s142.51,0,142.51,0c.04-.13,1.97-5.32,2.15-15.19.01-.8-.62-1.45-1.42-1.45h-141.82c-.78,0-1.42.63-1.42,1.42Z"/>
      </g>
    </g>
    <g>
      <path class="cls-1" d="M482.73,278.09c-12.81-7.62-22.72-17.89-29.74-30.8-7.01-12.91-10.52-27.09-10.52-42.55s3.4-29.94,10.22-42.85c6.81-12.91,16.37-23.13,28.67-30.65,12.3-7.52,26.48-11.29,42.55-11.29s30.96,3.56,42.85,10.67c11.9,7.12,20.94,16.98,27.15,29.58,6.2,12.61,9.3,27.04,9.3,43.31,0,5.69-.41,11.29-1.22,16.77h-109.8c2.64,8.54,7.12,15.1,13.42,19.67,6.3,4.58,14.03,6.86,23.18,6.86,7.52,0,14.13-.92,19.82-2.75,5.69-1.83,11.49-4.98,17.39-9.46l24.09,32.03c-9.15,7.93-18.76,13.72-28.82,17.38-10.07,3.66-21.61,5.49-34.62,5.49-16.47,0-31.11-3.81-43.92-11.44ZM557.15,187.35c-2.03-8.74-5.85-15.35-11.44-19.83-5.59-4.47-12.56-6.71-20.89-6.71s-15.61,2.29-21.2,6.86c-5.59,4.58-9.51,11.13-11.74,19.67h65.27Z"/>
      <path class="cls-1" d="M630.35,123.3h30.5l13.73,18.6c14.23-14.84,32.22-22.26,53.98-22.26,19.52,0,35.12,6.3,46.82,18.91,11.69,12.61,17.54,29.89,17.54,51.85v94.55h-50.63v-85.71c0-10.57-2.54-18.76-7.62-24.55-5.08-5.8-12-8.69-20.74-8.69-9.36,0-17.18,3.1-23.49,9.3-6.3,6.21-9.46,13.47-9.46,21.81v87.84h-50.63V123.3Z"/>
      <path class="cls-1" d="M938.7,140.68l13.11-17.38h30.5v136.33c0,15.25-3.51,29.13-10.52,41.63-7.01,12.5-17.28,22.37-30.8,29.58-13.52,7.22-29.64,10.83-48.34,10.83-25.82,0-48.6-7.62-68.32-22.88l26.23-35.08c6.71,5.49,13.32,9.35,19.83,11.59,6.5,2.24,13.62,3.36,21.35,3.36,14.03,0,24.35-3.25,30.96-9.76,6.6-6.5,9.91-16.17,9.91-28.97-12,9.96-26.33,14.95-43,14.95-14.24,0-26.99-3.36-38.28-10.07s-20.13-15.91-26.54-27.6c-6.41-11.69-9.61-24.96-9.61-39.8s3.2-27.91,9.61-39.8c6.41-11.9,15.25-21.2,26.54-27.91s24.04-10.06,38.28-10.06c19.32,0,35.68,7.01,49.11,21.04ZM875.11,173.93c-6.41,6.3-9.61,14.33-9.61,24.09s3.2,18.41,9.61,24.71c6.41,6.3,14.69,9.46,24.86,9.46s18.45-3.15,24.86-9.46c6.41-6.3,9.61-14.44,9.61-24.4s-3.2-17.84-9.61-24.25-14.69-9.61-24.86-9.61-18.45,3.15-24.86,9.46Z"/>
    </g>
  </g>
</svg>