<svg width="240" height="64" viewBox="0 0 240 64" fill="none" xmlns="http://www.w3.org/2000/svg" role="img" aria-label="Harmony">
  <defs>
    <linearGradient id="hm-wm-grad" x1="0" y1="0" x2="56" y2="56" gradientUnits="userSpaceOnUse">
      <stop stop-color="#D6249A"/>
      <stop offset="1" stop-color="#C51B88"/>
    </linearGradient>
  </defs>
  <rect x="4" y="4" width="56" height="56" rx="17" fill="url(#hm-wm-grad)"/>
  <path d="M18 19h24a6 6 0 0 1 6 6v13a6 6 0 0 1-6 6H28l-7.4 6.2A1.2 1.2 0 0 1 18.7 49V44h-.7a6 6 0 0 1-6-6V25a6 6 0 0 1 6-6z" fill="#fff" opacity="0.96"/>
  <path d="M30 26c.7 4 2.4 5.7 6.4 6.4-4 .7-5.7 2.4-6.4 6.4-.7-4-2.4-5.7-6.4-6.4 4-.7 5.7-2.4 6.4-6.4z" fill="#C51B88"/>
  <text x="76" y="42" font-family="'Plus Jakarta Sans', system-ui, sans-serif" font-size="30" font-weight="800" letter-spacing="-0.5" fill="#161824">Harmony</text>
</svg>
