<svg width="96" height="96" viewBox="0 0 96 96" fill="none" xmlns="http://www.w3.org/2000/svg" role="img" aria-label="Harmony logo mark">
  <defs>
    <linearGradient id="hm-grad" x1="0" y1="0" x2="96" y2="96" gradientUnits="userSpaceOnUse">
      <stop stop-color="#D6249A"/>
      <stop offset="1" stop-color="#C51B88"/>
    </linearGradient>
  </defs>
  <rect width="96" height="96" rx="28" fill="url(#hm-grad)"/>
  <path d="M28 26h40a10 10 0 0 1 10 10v22a10 10 0 0 1-10 10H45l-12.5 10.5A2 2 0 0 1 29 87V68h-1a10 10 0 0 1-10-10V36a10 10 0 0 1 10-10z" fill="#fff" opacity="0.96"/>
  <path d="M48 38c1 6.2 3.8 9 10 10-6.2 1-9 3.8-10 10-1-6.2-3.8-9-10-10 6.2-1 9-3.8 10-10z" fill="#C51B88"/>
  <circle cx="63.5" cy="40.5" r="2.6" fill="#D6249A"/>
</svg>
